<svg viewBox="0 0 72 72" xmlns="http://www.w3.org/2000/svg"><path d="m14.5943 53.154 3.6601 3.66-5.6302 2.2788z" fill="#3f3f3f"/><path d="m18.0381 41.8761 18.8303-18.8304 11.3129 11.3129-18.6705 18.6705" fill="#f4aa41"/><path d="m14.4132 52.5663 3.5149-9.1717 9.8997 9.8993-9.172 3.5151" fill="#a57939"/><path d="m42.9209 16.9933 7.5019-7.502 11.3129 11.3129-7.4382 7.4382" fill="#ea5a47"/><path d="m35.6498 24.2643 7.682-7.682 11.3129 11.3129-7.6169 7.6168" fill="#9b9b9a"/><g style="fill:none;stroke:#000;stroke-linecap:round;stroke-linejoin:round;stroke-miterlimit:10;stroke-width:2"><path d="m18.6304 56.8203 9.1974-3.5264 25.9929-25.9929-9.8995-9.8995-25.9931 25.9931-3.5377 9.2086z"/><path d="m47.3354 13.9873 3.5034-3.5034 9.8995 9.8995-3.4738 3.4738"/><path d="m18.5562 42.7665 9.8995 9.8994"/><path d="m14.3979 52.5817-2.4906 6.7331 6.7485-2.5058"/><path d="m36.9099 25.0073 9.5126 9.5126"/></g></svg>